<mxfile host="app.diagrams.net" modified="2023-03-17T08:46:21.762Z" agent="5.0 (Windows NT 10.0; Win64; x64) AppleWebKit/537.36 (KHTML, like Gecko) Chrome/111.0.0.0 Safari/537.36 Edg/111.0.1661.41" etag="4KlXCMA9g8HrwuezcJa9" version="20.8.20" type="github">
  <diagram name="第 1 页" id="ZQqhZ8Hld0Toa0hUssgE">
    <mxGraphModel dx="936" dy="494" grid="0" gridSize="10" guides="1" tooltips="1" connect="1" arrows="1" fold="1" page="1" pageScale="1" pageWidth="827" pageHeight="1169" math="0" shadow="0">
      <root>
        <mxCell id="0" />
        <mxCell id="1" parent="0" />
        <mxCell id="TY5nDxPquooeXLGGJWgU-2" value="0" style="ellipse;whiteSpace=wrap;html=1;aspect=fixed;" vertex="1" parent="1">
          <mxGeometry x="139" y="193" width="62" height="62" as="geometry" />
        </mxCell>
        <mxCell id="TY5nDxPquooeXLGGJWgU-3" value="" style="endArrow=classic;html=1;rounded=0;" edge="1" parent="1">
          <mxGeometry width="50" height="50" relative="1" as="geometry">
            <mxPoint x="71" y="224" as="sourcePoint" />
            <mxPoint x="139" y="224" as="targetPoint" />
          </mxGeometry>
        </mxCell>
        <mxCell id="TY5nDxPquooeXLGGJWgU-4" value="关键字和标识符" style="ellipse;whiteSpace=wrap;html=1;aspect=fixed;" vertex="1" parent="1">
          <mxGeometry x="315" y="65" width="72" height="72" as="geometry" />
        </mxCell>
        <mxCell id="TY5nDxPquooeXLGGJWgU-5" value="字符常量" style="ellipse;whiteSpace=wrap;html=1;aspect=fixed;" vertex="1" parent="1">
          <mxGeometry x="315" y="159" width="72" height="72" as="geometry" />
        </mxCell>
        <mxCell id="TY5nDxPquooeXLGGJWgU-6" value="字符串常量" style="ellipse;whiteSpace=wrap;html=1;aspect=fixed;" vertex="1" parent="1">
          <mxGeometry x="315" y="253" width="72" height="72" as="geometry" />
        </mxCell>
      </root>
    </mxGraphModel>
  </diagram>
</mxfile>
